<?xml version="1.0" standalone="no"?>
<!DOCTYPE svg PUBLIC "-//W3C//DTD SVG 20010904//EN"
 "http://www.w3.org/TR/2001/REC-SVG-20010904/DTD/svg10.dtd">
<svg version="1.0" xmlns="http://www.w3.org/2000/svg"
 width="300.000000pt" height="300.000000pt" viewBox="0 0 300.000000 300.000000"
 preserveAspectRatio="xMidYMid meet">
<metadata>
Created by potrace 1.11, written by Peter Selinger 2001-2013
</metadata>
<g transform="translate(0.000000,300.000000) scale(0.100000,-0.100000)"
fill="#000000" stroke="none">
<path d="M1545 2980 c-140 -36 -265 -98 -347 -169 -25 -23 -72 -79 -102 -126
-94 -143 -141 -177 -322 -236 -121 -39 -189 -81 -244 -150 -74 -94 -91 -139
-96 -255 -2 -57 3 -86 27 -154 30 -88 38 -175 19 -225 -9 -23 -15 -26 -45 -24
-18 2 -37 0 -41 -4 -4 -4 -2 -7 5 -7 7 0 10 -4 7 -9 -4 -5 3 -7 14 -4 11 3 20
1 20 -3 0 -5 -36 -24 -80 -43 -247 -104 -363 -244 -353 -430 2 -47 34 -137 53
-151 25 -18 54 -110 65 -206 4 -26 13 -64 21 -83 17 -41 81 -111 102 -111 7 0
11 -4 8 -9 -4 -5 4 -7 16 -3 14 3 19 1 14 -6 -5 -8 -2 -10 8 -6 9 3 16 2 16
-4 0 -6 11 -9 25 -8 13 2 22 -1 19 -5 -3 -5 -2 -9 3 -10 4 0 16 -2 26 -4 9 -2
15 1 11 6 -3 5 -10 6 -16 3 -7 -4 -8 -2 -4 4 8 13 36 5 36 -10 0 -5 6 -6 12
-1 25 15 38 11 57 -21 11 -17 28 -41 38 -53 53 -61 114 -131 134 -153 27 -31
59 -104 59 -134 0 -28 -33 -72 -60 -81 -27 -8 -25 -19 5 -35 13 -7 22 -16 20
-20 -2 -4 2 -7 10 -7 8 0 11 5 8 10 -4 6 4 3 17 -6 16 -11 27 -13 36 -6 8 7
17 5 28 -6 15 -15 16 -15 16 2 0 15 2 16 10 3 8 -13 10 -12 10 3 0 10 5 15 10
12 6 -4 7 -12 3 -18 -5 -8 -2 -8 9 0 8 7 18 10 21 6 4 -3 7 -2 7 4 0 6 7 14
16 17 15 6 15 4 3 -10 -13 -16 -12 -16 9 -5 13 7 21 15 18 18 -3 4 -1 12 5 19
8 10 16 11 31 3 18 -9 18 -8 9 10 -10 17 -9 20 4 15 22 -9 40 37 26 65 -15 28
-108 104 -220 181 -93 63 -168 137 -195 191 -9 19 -10 27 -3 22 7 -3 3 3 -7
15 -11 12 -16 22 -11 22 4 0 3 6 -3 13 -7 8 -7 18 -2 27 5 8 6 18 4 22 -8 13
-14 51 -7 44 12 -12 30 38 19 54 -6 8 -7 12 -2 8 11 -9 48 10 41 22 -3 5 0 12
6 16 8 4 9 3 5 -4 -4 -7 -2 -12 3 -12 6 0 11 6 11 14 0 8 5 18 12 22 7 5 8 3
3 -6 -5 -7 5 -5 24 6 17 10 29 24 27 30 -2 6 2 11 10 11 7 0 11 -4 8 -9 -3 -4
2 -5 11 -2 9 4 13 9 11 12 -3 3 2 11 12 18 13 9 20 10 31 1 12 -9 13 -9 7 0
-4 8 -2 13 4 13 6 0 9 4 6 9 -3 4 6 6 21 3 21 -4 25 -2 20 12 -5 13 -3 15 11
7 19 -10 58 10 45 23 -4 4 0 4 10 0 11 -4 17 -1 17 7 0 11 3 11 10 -1 8 -13
10 -13 10 2 0 9 5 20 12 24 7 4 8 3 4 -4 -5 -8 -2 -10 8 -6 9 3 13 10 10 15
-3 5 3 6 12 2 13 -5 16 -2 11 9 -4 12 -1 14 14 11 11 -3 21 1 25 11 3 9 11 13
17 9 6 -4 8 0 4 9 -4 11 0 15 11 14 9 -2 24 5 33 15 9 10 20 15 25 11 4 -4 3
1 -4 10 -11 14 -10 16 4 14 23 -3 54 26 40 37 -7 5 -2 7 11 4 15 -3 20 -1 16
9 -3 8 1 14 11 14 9 0 16 5 16 11 0 5 -5 7 -12 3 -7 -4 -8 -3 -4 5 4 6 12 9
17 6 5 -4 12 1 15 9 3 9 11 13 18 9 6 -4 4 2 -4 12 -12 15 -12 17 -1 10 11 -6
13 -4 8 8 -4 11 -1 15 12 12 14 -2 17 2 15 21 -1 15 3 24 11 24 8 0 17 5 21
12 4 7 3 8 -4 4 -7 -4 -12 -2 -12 3 0 6 7 11 16 11 8 0 13 4 9 9 -3 5 0 13 6
16 5 4 8 14 4 22 -4 12 -2 13 8 5 10 -9 13 -5 14 16 1 56 3 63 14 57 6 -4 9 0
7 11 -2 12 2 18 10 16 8 -1 11 2 7 8 -3 6 -11 8 -16 5 -5 -4 -9 -1 -9 4 0 6 4
11 9 11 5 0 12 7 15 16 4 10 2 13 -7 8 -9 -5 -9 -4 0 6 6 7 9 19 6 28 -4 9 -2
13 4 9 6 -4 9 4 7 21 -1 14 2 32 8 39 6 7 7 13 3 13 -4 0 -3 6 2 13 14 16 12
48 -1 40 -6 -4 -5 0 1 9 7 8 10 18 6 21 -9 9 28 48 38 41 5 -3 7 -11 4 -17 -3
-7 2 -2 11 11 9 12 23 22 30 22 8 0 13 4 11 9 -2 9 3 11 24 11 6 0 -9 -19 -33
-43 -52 -51 -90 -152 -87 -232 2 -53 5 -68 68 -302 23 -84 41 -155 41 -159 0
-4 -17 -4 -37 -1 -26 5 -33 3 -23 -3 8 -5 23 -10 32 -10 35 0 42 -109 11 -162
-39 -68 -159 -99 -237 -61 -39 18 -81 89 -65 109 5 6 4 16 -4 24 -8 9 -9 11 0
6 6 -3 14 -2 18 4 3 5 -2 10 -12 11 -11 0 -13 3 -5 6 7 3 23 -3 35 -13 21 -19
21 -19 7 0 -14 18 -13 19 5 13 20 -7 20 -7 1 8 -28 21 -88 19 -118 -5 -76 -59
-56 -186 39 -247 19 -13 31 -17 27 -10 -4 6 2 3 14 -7 17 -14 22 -16 22 -5 1
10 5 8 15 -5 11 -14 15 -16 15 -5 0 9 3 10 8 3 4 -6 23 -11 43 -11 20 0 43 -2
52 -6 9 -3 19 -2 23 4 3 6 13 8 21 5 8 -3 11 -1 8 4 -4 6 6 8 24 6 31 -3 43 8
19 17 -7 3 -3 4 9 4 12 -1 19 -6 15 -12 -3 -5 2 -4 11 3 9 8 22 10 29 6 10 -6
10 -4 0 9 -12 14 -11 16 7 12 13 -2 21 1 21 10 0 9 6 12 17 8 10 -4 14 -2 9 5
-3 6 -2 13 4 17 5 3 10 1 10 -5 0 -6 5 -8 10 -5 6 4 8 10 5 15 -3 4 2 11 11
14 9 3 14 13 11 20 -3 8 1 20 9 27 8 7 12 19 9 27 -4 12 -3 12 9 3 11 -9 14
-8 12 6 0 10 -5 21 -9 24 -4 3 -3 18 2 32 7 17 7 27 1 27 -12 0 -9 22 5 32 6
5 5 8 -2 8 -7 0 -13 5 -13 11 0 6 9 8 20 4 21 -7 28 10 8 18 -8 4 -7 6 4 6 9
1 18 4 21 9 2 4 2 1 1 -5 -5 -22 13 -14 30 12 21 32 20 41 -1 24 -16 -13 -17
-12 -4 3 7 10 21 18 30 18 14 0 14 2 1 10 -12 8 -12 10 -1 10 9 0 11 7 8 21
-4 14 -2 19 7 16 13 -5 15 40 3 60 -4 6 0 19 9 27 14 15 14 16 -1 16 -10 0
-13 4 -8 13 12 19 12 38 0 30 -7 -4 -8 0 -4 11 4 10 7 22 7 27 0 6 5 7 12 3 7
-4 8 -3 4 5 -4 6 -11 9 -16 6 -4 -3 -10 4 -13 16 -3 13 0 22 10 26 9 4 11 8 4
12 -6 4 -13 28 -15 54 -2 25 1 44 5 41 5 -3 9 -1 9 5 0 5 -5 13 -11 17 -8 4
-7 9 2 15 16 10 19 29 7 45 -5 7 1 23 14 39 23 30 33 59 17 49 -5 -3 -7 -9 -4
-14 3 -5 1 -11 -4 -14 -20 -13 -4 24 22 50 15 15 27 33 27 41 0 7 7 16 15 19
13 5 13 9 3 22 -11 13 -11 14 0 8 13 -8 52 23 53 41 0 5 3 10 6 13 4 3 3 -1
-2 -9 -5 -9 -3 -12 6 -9 8 3 13 10 12 15 -1 5 12 9 29 8 28 -2 29 -1 13 12
-23 16 -12 17 17 2 15 -8 19 -8 14 0 -5 7 5 14 24 17 18 4 29 12 27 18 -3 7 4
13 14 13 13 1 17 -2 12 -10 -4 -7 0 -6 10 2 9 7 14 18 11 23 -4 6 3 5 15 -1
18 -10 20 -9 14 5 -5 13 -3 15 7 9 10 -6 12 -4 7 9 -4 9 -3 15 2 11 5 -3 17 3
27 12 16 16 16 16 9 -7 -7 -24 -7 -24 8 -5 8 11 13 24 9 30 -3 5 1 4 10 -3 12
-10 20 -8 42 13 15 14 31 23 36 20 5 -3 7 4 5 16 -3 17 -1 19 10 9 15 -12 31
3 20 20 -3 5 0 7 8 4 8 -3 18 0 22 5 3 6 10 9 15 6 5 -3 12 0 16 6 4 8 3 9 -4
5 -7 -4 -12 -3 -12 1 0 5 9 14 21 21 17 11 20 11 14 0 -4 -8 -1 -7 7 2 8 8 20
21 28 28 13 11 12 12 -4 6 -18 -7 -18 -6 0 14 19 23 30 29 19 12 -3 -5 -1 -10
4 -10 6 0 11 7 11 15 0 8 4 15 9 15 6 0 8 9 6 20 -2 11 1 23 7 26 7 4 8 2 4
-4 -4 -7 -3 -12 3 -12 9 0 27 57 23 73 -2 5 2 6 7 3 18 -12 -6 -78 -88 -240
-70 -139 -79 -192 -59 -351 2 -15 -9 -26 -44 -45 -38 -20 -48 -30 -48 -50 0
-30 -28 -79 -68 -117 -16 -15 -39 -46 -50 -69 -18 -36 -24 -40 -54 -38 -18 1
-43 3 -54 3 -12 1 -51 21 -86 45 -36 24 -81 47 -101 50 l-37 6 1 -43 c1 -68
29 -126 78 -159 23 -16 51 -14 51 4 0 5 -3 7 -8 5 -4 -3 -7 9 -7 26 0 42 19
44 55 7 16 -17 30 -28 30 -25 0 3 12 -2 26 -12 15 -9 40 -16 56 -15 20 2 27
-1 22 -9 -5 -8 -3 -9 5 -5 7 5 10 15 7 23 -3 8 -1 11 5 8 5 -4 17 -1 26 7 12
9 15 9 9 1 -4 -7 -2 -13 3 -13 6 0 11 5 11 11 0 5 6 7 13 3 7 -5 6 0 -3 11
-14 17 -14 18 7 7 16 -9 24 -9 29 0 5 7 3 8 -7 3 -8 -5 -11 -4 -6 0 12 14 49
17 41 3 -4 -7 -3 -8 4 -4 7 4 12 14 12 22 0 8 5 14 11 14 5 0 7 -4 4 -10 -3
-5 1 -10 9 -10 9 0 16 5 16 11 0 5 6 7 12 3 22 -14 49 -12 44 3 -4 10 1 10 29
-1 19 -8 35 -11 35 -6 0 17 65 -16 101 -51 47 -47 73 -140 79 -289 1 -19 4
-30 6 -23 3 7 11 11 17 9 7 -1 9 -1 5 1 -5 3 -8 11 -8 19 0 9 5 12 12 8 7 -5
9 0 6 14 -4 12 -1 20 4 19 6 -1 13 4 16 12 3 9 0 11 -9 6 -8 -5 -5 2 6 15 11
13 15 20 8 17 -9 -6 -9 0 -3 23 5 18 5 30 -1 30 -5 0 -9 5 -9 11 0 5 5 7 11 4
11 -8 -23 60 -43 85 -7 9 -30 26 -50 39 -39 23 -55 51 -19 32 10 -6 21 -7 25
-4 3 3 6 1 6 -5 0 -7 3 -11 8 -10 15 4 78 -33 91 -54 19 -30 16 -112 -7 -184
-21 -67 -20 -109 2 -153 18 -33 54 -59 79 -55 9 1 15 -2 11 -7 -5 -9 2 -11 31
-11 30 0 36 2 30 12 -9 15 2 12 19 -5 13 -14 15 -13 13 6 -1 13 -13 25 -34 34
-35 15 -55 46 -34 53 8 3 6 8 -6 18 -10 8 -13 14 -8 13 23 -3 27 2 14 18 -12
14 -12 16 0 8 11 -6 13 -4 8 7 -3 9 0 21 6 28 9 10 9 11 0 6 -20 -11 -15 1 8
23 14 13 17 21 9 26 -8 5 -6 12 7 22 11 9 12 12 3 8 -8 -4 -6 1 5 9 10 9 21
28 23 43 2 15 8 33 13 39 7 8 6 15 -1 19 -8 5 -5 12 7 21 17 13 17 14 0 8 -15
-5 -16 -3 -8 20 7 16 7 27 1 31 -6 4 -10 15 -10 26 0 11 -22 41 -48 68 -50 49
-46 48 -248 100 -46 12 -88 42 -105 73 -8 15 -8 19 0 14 8 -5 8 0 2 17 -7 19
-5 26 11 36 17 10 18 15 6 28 -9 12 -10 15 0 9 7 -4 12 -1 12 9 0 9 5 13 11
10 6 -4 13 2 16 14 3 12 10 21 17 21 6 0 4 5 -4 10 -13 8 -13 10 2 10 14 0 15
-9 11 -59 -5 -49 -2 -66 17 -99 23 -41 93 -88 112 -75 7 3 8 1 4 -6 -6 -8 0
-10 18 -5 16 4 26 2 26 -5 0 -6 13 -11 29 -11 16 0 36 -7 44 -15 8 -8 17 -11
21 -8 3 4 6 1 6 -5 0 -7 6 -12 14 -12 7 0 25 -25 40 -55 26 -55 38 -65 52 -43
4 7 3 8 -4 4 -7 -4 -12 -2 -12 3 0 6 4 11 8 11 4 0 8 9 8 20 0 11 -3 20 -7 20
-4 0 -10 10 -13 22 -15 55 -69 94 -171 123 -78 22 -127 50 -142 80 -8 19 -8
23 0 19 8 -5 7 -2 0 7 -7 7 -13 19 -13 27 0 8 5 10 13 6 10 -6 10 -4 0 7 -15
15 -17 33 -4 25 13 -9 20 16 10 36 -7 13 -5 16 11 13 11 -2 23 1 26 7 4 7 2 8
-4 4 -7 -4 -12 -1 -12 8 0 8 5 18 12 22 7 5 8 3 3 -6 -5 -8 -4 -11 3 -7 5 4 8
17 4 30 -5 20 -4 21 12 8 15 -13 16 -12 6 14 -10 26 -9 27 6 14 16 -13 16 -12
4 11 -13 24 -12 24 5 10 17 -14 18 -14 6 9 -7 13 -9 21 -3 18 5 -4 14 5 21 19
16 35 13 44 -4 14 l-15 -25 7 30 c3 16 6 35 6 42 0 7 4 10 8 7 4 -2 10 0 14 6
3 5 -2 10 -11 10 -17 0 -16 1 1 13 12 10 14 16 7 21 -7 4 -12 12 -12 17 0 6 6
7 13 3 8 -6 8 -3 -1 9 -8 9 -12 22 -9 29 2 7 -1 24 -8 38 -7 14 -19 39 -27 55
-17 39 -70 117 -75 111 -2 -2 7 -28 20 -58 35 -79 59 -228 36 -228 -6 0 -9 8
-7 18 1 9 -1 23 -5 30 -5 7 -4 12 3 12 7 0 8 6 2 18 -5 9 -8 25 -7 35 2 9 -1
17 -6 17 -5 0 -9 11 -9 25 0 14 -5 25 -11 25 -6 0 -9 6 -6 13 3 7 -4 24 -14
38 -10 13 -19 27 -19 31 0 10 -42 58 -50 58 -4 0 -7 -7 -8 -15 -1 -8 -3 -22
-4 -30 -1 -8 -5 -12 -9 -9 -5 2 -6 11 -2 19 3 9 0 29 -7 45 -10 25 -14 27 -26
15 -8 -7 -14 -21 -14 -30 0 -9 -4 -13 -10 -10 -5 3 -11 1 -11 -4 -3 -22 -5
-27 -21 -50 -10 -14 -21 -20 -29 -15 -9 5 -10 2 -5 -12 4 -10 4 -15 0 -12 -3
4 -17 -6 -31 -22 -56 -67 -286 -207 -354 -215 -17 -3 -38 -6 -48 -9 -30 -9
-175 -19 -251 -17 -234 5 -318 2 -393 -14 -21 -4 -27 -2 -22 7 4 7 0 5 -8 -4
-8 -10 -28 -21 -44 -24 -17 -3 -62 -34 -103 -70 -40 -35 -76 -64 -81 -64 -22
0 -97 -180 -124 -300 -9 -41 -21 -80 -27 -87 -6 -7 -7 -13 -2 -13 5 0 -2 -10
-16 -21 -14 -11 -19 -18 -12 -14 12 6 12 3 2 -15 -10 -18 -14 -20 -22 -9 -7
10 -8 8 -3 -7 15 -55 -188 -163 -335 -179 -148 -17 -160 -17 -160 -7 0 6 9 9
21 7 14 -3 19 0 16 9 -3 7 1 13 9 13 7 0 10 -5 7 -10 -4 -6 4 -3 16 6 13 8 30
13 39 10 11 -5 14 -2 10 9 -5 11 -1 14 18 10 13 -2 32 2 41 9 11 9 14 10 9 2
-5 -9 -2 -11 8 -7 9 3 13 11 9 18 -4 7 -1 6 9 -2 17 -13 52 -6 42 9 -5 8 10
13 30 10 5 -1 16 5 26 14 12 11 20 13 25 6 10 -18 25 -12 18 7 -6 14 -4 15 9
4 13 -10 18 -10 24 -1 4 8 3 9 -4 5 -7 -4 -12 -3 -12 3 0 5 19 19 43 30 39 19
127 91 111 91 -3 0 -2 6 3 13 6 6 13 27 17 46 l6 34 -22 -19 c-23 -19 -23 -19
-5 2 9 11 14 24 10 29 -5 4 -2 5 5 1 9 -6 11 -1 8 18 -4 20 -1 24 12 19 15 -6
15 -5 3 10 -9 11 -10 17 -2 17 6 0 11 5 11 11 0 5 -6 7 -12 4 -7 -4 -4 1 7 10
15 13 16 19 7 22 -10 4 -8 9 5 20 11 9 12 12 3 8 -10 -4 -9 -2 3 8 20 16 23
32 5 21 -10 -6 -10 -4 0 8 7 9 12 20 11 24 -4 23 2 35 14 28 7 -5 6 0 -3 11
-12 15 -12 17 -1 10 11 -6 13 -2 9 18 -3 15 -2 24 2 22 4 -3 14 3 21 12 10 12
10 14 2 9 -9 -5 -13 -1 -13 10 0 10 3 14 7 11 3 -4 12 -2 20 4 11 10 11 15 1
27 -10 13 -10 14 0 8 7 -4 12 -2 12 4 0 6 4 8 10 5 6 -4 7 1 3 11 -4 12 -3 15
5 10 8 -5 17 4 25 23 7 17 16 28 20 24 4 -3 7 -1 7 6 0 7 5 9 13 5 9 -6 9 -4
-1 8 -10 13 -10 18 -1 24 7 4 9 3 5 -4 -4 -7 1 -10 14 -9 11 1 20 7 20 14 0 6
5 15 12 19 7 4 8 3 4 -5 -5 -8 0 -8 21 1 35 15 56 32 28 23 -16 -5 -17 -5 -5
3 8 6 18 8 23 5 5 -3 13 1 18 8 6 10 9 11 9 2 0 -7 5 -13 11 -13 5 0 7 5 4 10
-3 6 3 10 14 10 12 0 21 6 21 13 0 9 2 9 8 -1 7 -10 15 -10 43 2 24 10 39 11
53 4 13 -7 16 -7 12 1 -10 15 7 14 23 -1 12 -11 13 -9 7 7 -6 16 -5 18 5 8 16
-16 33 -17 23 -1 -5 7 -3 8 7 2 20 -12 51 -16 44 -5 -3 5 -1 13 5 16 6 4 10 3
9 -2 -3 -20 2 -23 22 -12 12 6 19 7 15 1 -4 -6 2 -8 14 -5 11 3 17 9 14 14 -3
5 2 6 10 3 9 -3 13 -11 9 -18 -3 -6 3 -3 14 7 14 13 23 15 28 7 5 -8 11 -7 23
2 9 7 13 8 9 2 -4 -7 5 -11 23 -11 16 0 27 4 25 8 -6 9 15 6 32 -4 6 -4 14 -3
18 3 4 6 11 8 16 4 5 -3 16 -1 24 6 9 7 15 8 20 0 3 -5 11 -10 16 -10 6 0 8 4
5 8 -3 5 1 9 9 9 8 0 11 -5 8 -11 -3 -6 -1 -6 7 1 7 6 19 9 27 6 8 -3 21 3 29
13 9 11 13 14 9 7 -4 -8 3 -12 24 -10 24 2 27 5 18 16 -10 12 -9 12 11 2 13
-7 22 -8 22 -2 0 6 7 7 17 4 12 -5 14 -3 8 8 -4 8 -5 11 0 7 4 -4 15 -2 23 5
13 9 14 9 8 0 -4 -7 -2 -13 3 -13 6 0 11 5 11 11 0 5 4 8 9 5 5 -4 11 -2 13 4
2 6 14 12 27 15 14 2 28 10 31 16 4 6 10 10 14 10 20 -3 26 0 20 11 -5 7 -3 8
5 3 7 -4 22 2 37 16 13 12 24 18 24 13 0 -14 -119 -89 -127 -80 -3 3 -11 -1
-17 -8 -20 -25 -195 -77 -311 -91 -16 -2 -77 -7 -135 -10 -154 -9 -225 -14
-225 -15 0 -1 -13 -3 -30 -4 -67 -7 -170 -40 -243 -79 -47 -26 -34 -31 18 -8
24 10 54 17 66 15 13 -2 24 0 24 5 0 11 19 9 39 -3 11 -7 13 -5 8 7 -5 14 -3
15 14 4 16 -10 21 -9 29 3 6 10 10 11 10 3 0 -7 5 -13 11 -13 5 0 7 6 3 13 -5
8 -2 8 9 -2 11 -8 17 -9 17 -3 0 7 7 9 17 5 10 -4 14 -2 10 4 -3 5 0 10 8 10
8 0 12 -4 9 -9 -3 -4 0 -8 5 -8 6 0 11 5 11 11 0 6 5 7 13 2 17 -11 38 -13 32
-3 -8 12 27 22 38 11 7 -7 15 -7 26 2 12 10 13 9 6 -3 -7 -13 -6 -13 7 -2 13
10 17 10 20 0 4 -11 8 -11 20 0 13 10 17 10 21 0 3 -7 6 -4 6 7 1 14 4 16 9 7
5 -7 18 -14 31 -17 14 -2 19 0 15 7 -5 7 2 9 20 6 15 -3 26 -1 26 6 0 6 5 4
10 -4 8 -12 10 -12 10 5 0 17 2 17 10 5 9 -13 11 -13 20 0 6 10 10 11 10 3 0
-7 4 -13 10 -13 5 0 7 6 4 13 -5 14 22 17 43 4 6 -4 13 0 17 8 3 8 13 15 21
15 9 0 13 -5 10 -10 -4 -6 -11 -7 -17 -4 -7 4 -8 2 -4 -4 10 -17 49 5 40 21
-4 7 -4 9 1 5 4 -4 14 -3 21 3 8 7 14 7 19 -1 4 -6 3 -9 -2 -8 -4 2 -9 0 -10
-5 -7 -18 -1 -19 18 -1 12 10 23 18 25 17 10 -7 24 -2 24 8 0 6 -5 7 -12 2
-19 -11 -38 -12 -38 -2 0 6 6 9 13 7 6 -1 22 3 34 10 19 11 21 10 16 -11 -3
-16 -2 -18 5 -8 5 7 14 11 20 7 5 -3 12 3 15 14 3 11 13 20 24 19 16 0 16 -1
-2 -10 l-20 -9 20 3 c12 2 19 10 19 20 -1 9 2 14 8 11 5 -3 20 1 33 10 13 9
31 13 40 10 10 -4 15 -2 13 7 -2 9 4 13 15 11 21 -4 53 24 35 30 -9 3 -9 6 0
12 7 4 12 2 12 -4 0 -6 4 -9 10 -5 5 3 7 13 4 23 -5 13 -4 14 4 3 8 -11 11
-10 16 5 3 11 18 33 32 49 23 27 64 96 64 109 0 3 -25 -20 -55 -51 -30 -31
-55 -51 -55 -45 0 6 9 16 20 22 11 6 17 16 14 22 -4 7 -3 8 4 4 7 -4 12 -1 12
7 0 8 7 18 16 21 8 3 12 10 9 16 -3 5 -1 10 5 10 7 0 10 7 6 15 -3 8 0 18 7
22 14 10 19 43 5 43 -5 0 -7 4 -4 8 3 5 -8 24 -24 43 -28 32 -31 33 -41 15 -6
-10 -27 -36 -46 -57 -76 -84 -138 -105 -448 -154 -209 -34 -203 -33 -255 -39
-25 -3 -54 -8 -65 -10 -11 -2 -42 -7 -70 -10 -27 -4 -72 -11 -100 -16 -27 -5
-70 -12 -95 -15 -25 -4 -76 -18 -115 -32 -114 -41 -154 -49 -168 -33 -9 10 -9
11 1 5 8 -4 19 0 27 11 7 11 22 19 32 19 11 0 17 7 17 17 -1 11 3 15 10 11 21
-14 35 -11 29 5 -4 10 -2 13 5 8 7 -4 12 -2 12 3 0 6 5 11 11 11 5 0 7 -5 3
-12 -5 -7 -3 -8 5 -4 7 5 10 15 6 23 -4 13 -3 14 10 3 12 -10 15 -10 15 1 0
11 2 11 10 -1 8 -12 10 -12 11 5 0 11 3 14 6 8 2 -7 9 -13 14 -13 6 0 8 4 5 9
-3 5 1 12 10 15 8 3 12 2 9 -4 -10 -16 12 -12 28 5 12 11 16 12 20 3 3 -10 8
-9 19 2 9 9 30 15 51 14 22 -1 37 3 37 10 0 7 3 7 8 1 10 -14 35 -18 26 -4 -4
8 0 9 16 4 17 -5 20 -4 15 5 -6 10 -3 10 11 2 14 -8 21 -6 32 6 7 10 11 12 8
6 -8 -15 21 -26 30 -12 5 7 2 8 -7 3 -8 -5 -10 -4 -6 0 10 12 38 15 31 4 -3
-5 0 -9 5 -9 6 0 11 5 11 11 0 8 4 8 14 0 10 -9 16 -9 21 -1 5 8 11 7 23 -2
12 -10 14 -10 8 0 -4 6 -4 12 1 13 4 0 16 2 26 4 9 2 15 -1 11 -6 -3 -5 0 -9
5 -9 6 0 11 6 12 13 0 6 4 3 9 -8 8 -18 9 -18 9 -2 1 15 4 16 22 6 15 -8 19
-8 15 0 -4 6 -4 11 1 12 4 0 17 2 28 4 10 2 25 -1 32 -7 12 -10 17 -4 14 16
-1 5 4 4 13 -3 8 -7 17 -8 20 -2 3 5 15 7 27 4 12 -4 25 0 30 8 5 8 9 9 9 3 0
-12 29 -12 48 0 6 4 17 4 24 0 8 -5 9 -2 5 10 -5 12 -3 15 5 9 21 -12 49 -11
38 2 -7 8 -1 10 22 7 21 -3 29 -1 24 7 -4 6 -2 11 3 11 6 0 11 -5 11 -12 0 -6
7 -3 16 8 8 10 13 14 9 7 -4 -9 1 -10 25 -2 16 6 27 15 24 20 -3 5 3 6 12 2
13 -5 16 -3 11 10 -4 12 -1 15 14 12 16 -3 19 0 15 12 -5 13 -4 14 9 3 9 -7
18 -10 22 -6 3 3 1 6 -6 6 -7 0 -9 5 -6 11 4 6 14 8 22 5 8 -3 12 -2 9 3 -3 5
3 19 14 31 11 13 20 19 20 14 1 -5 7 2 14 16 9 16 11 30 5 42 -10 18 -91 51
-183 74 -93 23 -111 25 -247 28 -99 2 -143 -1 -200 -16 -89 -23 -193 -71 -285
-130 -115 -74 -136 -85 -201 -107 -66 -22 -99 -28 -74 -12 8 5 10 14 5 22 -6
10 -3 10 11 -1 17 -14 18 -13 13 7 -5 20 -4 21 13 12 15 -7 19 -7 17 3 -2 7 3
12 11 10 12 -3 12 0 2 12 -9 11 -9 16 0 22 8 5 9 3 4 -6 -5 -8 -3 -11 6 -8 8
3 13 12 13 21 -1 10 5 14 18 12 15 -3 18 0 14 12 -6 14 -4 14 11 2 9 -8 14 -9
11 -4 -4 6 1 19 9 30 15 19 15 19 9 1 -5 -16 -4 -17 9 -6 8 7 12 17 9 22 -4 6
4 4 17 -3 21 -11 23 -11 11 3 -10 13 -10 18 -1 24 8 4 9 3 5 -4 -4 -7 -2 -12
3 -12 6 0 11 8 11 18 0 14 2 15 10 2 9 -13 14 -7 11 12 0 4 6 5 14 2 8 -4 15
-1 15 6 0 7 7 10 15 6 8 -3 15 -1 15 4 0 6 4 9 9 8 5 -2 17 6 26 17 9 11 14
14 10 8 -3 -7 -1 -13 5 -13 6 0 13 7 16 15 5 13 9 13 22 3 11 -9 13 -9 9 -1
-10 15 12 28 42 24 15 -2 21 1 16 8 -8 14 17 10 27 -4 5 -6 8 -5 8 3 0 7 5 10
10 7 6 -3 10 -2 10 3 0 6 10 8 22 4 12 -3 19 -1 15 5 -3 5 0 10 8 10 8 0 11
-5 8 -11 -4 -6 0 -5 9 2 13 10 17 10 21 0 4 -8 6 -9 6 -1 1 6 10 9 23 5 16 -4
19 -2 13 9 -6 11 -5 11 5 2 9 -9 19 -9 33 -2 14 8 18 8 13 0 -9 -14 7 -14 21
0 8 8 13 7 18 -2 6 -8 4 -10 -5 -4 -9 6 -11 4 -5 -5 6 -10 11 -9 22 5 7 11 13
13 13 7 0 -7 5 -12 11 -12 5 0 7 4 4 10 -3 6 1 7 9 4 9 -3 13 -11 9 -18 -4 -6
1 -5 10 3 14 11 20 11 34 0 11 -10 14 -10 9 -1 -4 6 -2 12 3 12 6 0 11 -4 11
-9 0 -6 9 -8 20 -6 11 2 20 0 20 -6 0 -5 16 -7 36 -5 24 3 37 0 40 -9 3 -8 12
-11 20 -8 8 3 14 0 14 -6 0 -6 4 -10 8 -9 12 4 82 -25 82 -34 0 -4 5 -8 11 -8
14 0 118 -70 158 -106 16 -14 41 -54 56 -90 15 -35 30 -64 34 -64 15 0 21 13
11 25 -5 6 -11 26 -12 44 -1 18 -6 35 -10 37 -4 3 -8 14 -8 25 0 10 -4 19 -10
19 -5 0 -10 7 -10 16 0 22 -52 95 -94 132 -74 65 -235 138 -426 194 -92 26
-123 31 -250 33 -115 3 -159 0 -215 -15z m848 -335 c-3 -8 -10 -15 -15 -15 -7
0 -6 5 1 13 6 8 7 18 3 22 -4 5 -2 5 5 1 7 -4 10 -13 6 -21z m-1390 -295
c-133 -127 -194 -240 -210 -390 -3 -30 -12 -72 -19 -93 -26 -73 -88 -139 -91
-96 -1 10 3 21 8 24 5 4 2 13 -7 22 -11 11 -12 19 -5 26 13 13 15 30 2 23 -10
-6 -9 6 2 37 15 38 16 47 6 53 -6 3 -3 11 8 20 14 10 15 13 4 14 -12 0 -12 3
-3 12 16 16 15 31 0 22 -10 -6 -10 -5 -1 8 7 8 9 19 5 23 -4 5 -2 5 5 1 6 -3
14 -2 18 4 3 5 0 10 -7 10 -10 0 -10 2 1 9 8 5 10 14 5 22 -6 10 -3 10 11 -1
13 -10 16 -11 11 -2 -5 8 -2 20 6 30 24 28 33 46 18 37 -9 -5 -11 -4 -6 3 4 7
13 12 20 12 6 0 23 18 36 39 14 21 29 36 34 33 5 -3 7 2 3 11 -3 9 -1 19 5 23
7 5 8 2 3 -6 -5 -8 -3 -11 6 -8 8 3 14 12 13 20 -1 7 8 15 20 16 11 0 29 11
39 24 10 13 16 17 12 11 -3 -7 -2 -13 4 -13 5 0 12 9 16 19 4 13 12 18 22 14
12 -5 14 -3 8 7 -6 9 -4 11 4 5 9 -5 8 -12 -6 -25z m1371 -18 c3 -5 -1 -9 -9
-9 -8 0 -12 4 -9 9 3 4 7 8 9 8 2 0 6 -4 9 -8z m-1574 -127 c-7 -8 -17 -15
-23 -15 -6 0 -2 7 9 15 25 19 30 19 14 0z m-45 -65 c-3 -5 -12 -10 -18 -10 -7
0 -6 4 3 10 19 12 23 12 15 0z m1948 -108 c-10 -26 -33 -58 -33 -45 0 7 5 15
10 18 6 3 10 17 10 31 0 14 4 23 10 19 5 -3 6 -13 3 -23z m-433 3 c0 -7 -30
-13 -34 -7 -3 4 4 9 15 9 10 1 19 0 19 -2z m-1175 -55 c-3 -5 -12 -10 -18 -10
-7 0 -6 4 3 10 19 12 23 12 15 0z m692 -185 c0 -8 -3 -13 -5 -10 -3 3 -14 -14
-26 -38 -17 -36 -20 -61 -20 -182 0 -77 1 -171 3 -210 4 -136 -23 -225 -80
-256 -13 -6 -19 -7 -15 -1 3 6 1 14 -5 18 -8 4 -7 9 2 15 10 6 11 9 2 9 -7 0
-13 8 -13 19 0 10 -6 34 -14 52 -7 19 -11 40 -9 47 3 6 0 12 -7 12 -6 0 -8 5
-5 10 3 6 1 10 -6 10 -8 0 -8 4 1 15 10 12 9 16 -4 21 -9 3 -16 14 -16 23 0 9
-5 22 -12 29 -9 9 -9 12 0 12 7 0 12 5 12 11 0 5 -4 8 -9 5 -5 -3 -11 1 -15 9
-3 8 0 15 6 15 7 0 6 5 -2 15 -7 8 -9 15 -5 15 4 0 2 7 -5 15 -7 8 -8 15 -3
15 5 0 9 9 10 20 1 13 -2 18 -10 13 -7 -3 -4 2 5 13 12 14 14 24 7 37 -8 13
-6 17 8 17 10 0 14 4 8 8 -14 10 -17 32 -4 32 5 0 7 5 3 12 -5 8 -2 9 12 4 10
-4 15 -4 11 0 -4 4 -1 14 6 22 10 13 9 14 -2 7 -10 -6 -12 -4 -7 4 5 7 14 10
22 7 9 -3 14 0 12 7 -2 6 2 14 7 16 6 2 16 12 23 23 7 10 18 15 24 12 6 -4 17
1 25 11 7 11 13 13 13 6 0 -7 5 -9 10 -6 6 4 7 12 3 18 -4 7 2 5 12 -3 17 -14
18 -13 12 3 -4 10 -3 16 2 13 5 -3 14 1 21 9 15 19 17 19 17 0z m63 -10 c-7
-9 -15 -13 -19 -10 -3 3 1 10 9 15 21 14 24 12 10 -5z m-20 -40 c-7 -9 -15
-13 -19 -10 -3 3 1 10 9 15 21 14 24 12 10 -5z m-1021 -72 c-51 -120 -84 -166
-149 -207 -34 -22 -110 -55 -140 -61 -8 -2 -23 -7 -34 -11 -14 -5 -17 -3 -14
7 3 8 11 14 19 15 30 2 33 5 19 14 -11 8 -7 9 14 4 20 -5 27 -3 22 4 -3 6 -1
14 5 18 8 4 9 3 5 -4 -4 -7 -2 -12 3 -12 6 0 11 5 11 11 0 5 4 8 9 4 11 -6 42
35 35 47 -3 4 3 5 13 1 16 -6 17 -5 3 12 -8 10 -10 16 -4 12 6 -3 20 1 30 9
19 15 19 15 -1 10 -19 -6 -19 -5 -2 8 14 10 15 15 5 19 -7 3 -2 6 12 6 14 1
20 4 14 9 -18 12 -12 42 8 42 11 0 17 4 13 9 -3 6 3 8 14 6 15 -3 18 0 14 12
-4 9 -2 14 3 10 12 -7 27 2 43 28 11 19 12 18 6 -5 -6 -23 -5 -24 6 -5 10 17
28 34 36 35 1 0 -7 -21 -18 -47z m525 -51 c-24 -80 -64 -157 -117 -228 -51
-68 -131 -145 -168 -163 -23 -11 -23 -11 -5 3 11 9 16 16 12 16 -5 0 -3 7 4
15 7 8 16 12 21 9 5 -3 10 2 10 10 1 9 2 20 3 26 0 5 11 17 24 26 16 11 21 21
16 36 -5 16 -3 20 9 15 12 -4 15 -1 12 15 -3 12 3 27 13 35 9 8 12 12 5 9 -6
-3 -10 0 -9 6 3 24 17 38 29 31 7 -4 6 1 -2 10 -12 15 -12 17 3 11 12 -5 15
-2 10 10 -4 11 -1 16 11 16 9 0 13 5 10 10 -4 6 -12 7 -18 4 -7 -4 -8 -3 -4 2
5 5 14 9 20 9 5 0 12 6 15 14 3 9 0 11 -8 6 -9 -5 -11 -4 -6 3 4 7 14 12 22
12 17 0 19 16 2 24 -9 4 -8 5 2 5 30 -2 36 1 37 21 1 13 -2 18 -9 14 -6 -4 -8
-3 -5 4 4 5 15 8 25 6 10 -3 23 4 32 16 22 31 24 7 4 -58z m76 58 c0 -5 -2
-10 -4 -10 -3 0 -8 5 -11 10 -3 6 -1 10 4 10 6 0 11 -4 11 -10z m367 -85 c0
-8 -4 -12 -9 -9 -5 3 -6 10 -3 15 9 13 12 11 12 -6z m-1322 -195 c3 -5 -8 -16
-25 -25 -16 -8 -30 -13 -30 -10 0 7 -57 -42 -92 -80 -29 -30 -72 -130 -64
-144 3 -4 -8 -18 -25 -30 -16 -12 -40 -39 -54 -61 -14 -22 -34 -44 -46 -51
-15 -8 -19 -8 -15 0 4 6 3 11 -2 11 -4 0 -8 19 -8 43 -1 24 -4 49 -8 55 -4 7
-2 12 6 12 9 0 9 3 -2 10 -12 8 -12 10 -1 10 9 0 12 8 9 25 -3 13 -1 22 3 19
5 -3 10 0 10 5 1 6 2 15 3 20 0 5 5 13 10 18 5 5 6 2 2 -7 -5 -9 -2 -8 7 2 8
10 18 14 23 10 4 -4 3 1 -4 10 -11 14 -10 16 7 11 15 -4 21 -1 21 11 0 11 5
14 12 10 8 -5 9 -2 5 10 -4 10 -3 15 3 11 6 -3 10 -1 10 5 0 6 5 8 11 4 8 -4
7 -9 -2 -16 -11 -8 -11 -9 1 -5 8 2 14 10 12 17 -2 8 4 11 18 7 13 -3 20 0 20
8 0 8 5 17 12 21 7 4 8 3 4 -4 -11 -18 4 -14 22 6 10 10 13 12 8 5 -5 -7 -6
-13 -2 -13 9 0 50 24 57 33 5 7 26 14 52 16 5 1 5 5 2 11 -4 6 1 7 11 3 12 -4
15 -3 10 5 -4 7 -5 12 -2 12 3 0 7 -4 11 -10z m385 6 c0 -3 -4 -8 -10 -11 -5
-3 -10 -1 -10 4 0 6 5 11 10 11 6 0 10 -2 10 -4z m290 -46 c0 -5 -5 -10 -11
-10 -5 0 -7 5 -4 10 3 6 8 10 11 10 2 0 4 -4 4 -10z m-500 -80 c0 -5 -5 -10
-11 -10 -5 0 -7 5 -4 10 3 6 8 10 11 10 2 0 4 -4 4 -10z m1141 -73 c-10 -9
-11 -8 -5 6 3 10 9 15 12 12 3 -3 0 -11 -7 -18z m-1006 -137 c-3 -5 -14 -14
-24 -19 -13 -7 -18 -6 -18 4 0 7 6 11 13 8 6 -2 15 0 19 6 3 6 8 11 11 11 3 0
2 -4 -1 -10z m-56 -34 c-2 -1 -38 -23 -79 -49 -149 -91 -193 -156 -194 -282
-1 -44 2 -92 7 -107 9 -35 -3 -36 -58 -7 -52 28 -89 77 -99 131 -3 13 -5 23
-6 23 -1 0 -3 12 -4 27 -2 15 1 25 6 21 6 -3 9 8 8 23 -3 46 -1 54 15 48 11
-4 13 -2 9 9 -3 10 3 20 16 27 12 6 19 18 16 25 -3 9 1 12 15 10 11 -2 22 2
25 9 3 8 14 16 25 19 13 4 17 11 13 24 -4 12 -3 14 3 5 10 -13 76 -6 68 8 -6
9 25 23 33 15 3 -3 -1 -5 -8 -5 -7 0 -11 -3 -8 -6 4 -3 17 2 31 11 17 10 26
12 29 5 2 -6 11 -8 21 -5 9 4 14 12 10 19 -4 7 -2 7 7 -1 10 -9 16 -8 27 3 12
12 18 12 31 2 13 -11 14 -11 7 1 -6 11 -4 13 8 8 10 -4 17 -1 18 6 0 8 2 8 6
-1 3 -7 3 -14 2 -16z m-154 -296 c-3 -5 -12 -10 -18 -10 -7 0 -6 4 3 10 19 12
23 12 15 0z"/>
<path d="M1656 1732 c-3 -5 1 -9 9 -9 8 0 12 4 9 9 -3 4 -7 8 -9 8 -2 0 -6 -4
-9 -8z"/>
<path d="M308 803 c7 -3 16 -2 19 1 4 3 -2 6 -13 5 -11 0 -14 -3 -6 -6z"/>
<path d="M2444 2328 l-19 -23 23 19 c21 18 27 26 19 26 -2 0 -12 -10 -23 -22z"/>
<path d="M2265 2190 c-3 -5 -2 -10 4 -10 5 0 13 5 16 10 3 6 2 10 -4 10 -5 0
-13 -4 -16 -10z"/>
<path d="M1875 2150 c-3 -5 -1 -10 4 -10 6 0 11 5 11 10 0 6 -2 10 -4 10 -3 0
-8 -4 -11 -10z"/>
<path d="M1615 2050 c3 -5 8 -10 11 -10 2 0 4 5 4 10 0 6 -5 10 -11 10 -5 0
-7 -4 -4 -10z"/>
<path d="M1430 1755 c-7 -9 -8 -15 -2 -15 5 0 12 7 16 15 3 8 4 15 2 15 -2 0
-9 -7 -16 -15z"/>
<path d="M253 1683 c9 -14 67 -35 67 -24 0 5 -8 11 -17 14 -10 2 -27 8 -37 13
-13 5 -17 4 -13 -3z"/>
<path d="M835 1359 c-4 -6 -5 -12 -2 -15 2 -3 7 2 10 11 7 17 1 20 -8 4z"/>
<path d="M790 1329 c0 -5 5 -7 10 -4 6 3 10 8 10 11 0 2 -4 4 -10 4 -5 0 -10
-5 -10 -11z"/>
<path d="M2670 870 c0 -14 8 -24 20 -27 16 -4 18 -8 9 -19 -10 -12 -9 -13 5
-8 9 3 16 10 16 16 0 5 5 6 12 2 23 -15 -3 16 -32 36 l-30 21 0 -21z"/>
<path d="M915 70 c-3 -5 -1 -10 4 -10 6 0 11 5 11 10 0 6 -2 10 -4 10 -3 0 -8
-4 -11 -10z"/>
</g>
</svg>
