<svg xmlns="http://www.w3.org/2000/svg" viewBox="0 0 253.75 253.75" width="32" height="32"><g data-name="Слой 2"><path d="M126.81 253.75h.12a126.81 126.81 0 0 0 126.82-126.81v-.06A126.87 126.87 0 0 0 126.88 0 126.87 126.87 0 0 0 0 126.87v.06a126.81 126.81 0 0 0 126.81 126.82z" fill="#333"/><path d="M138.81 207.4v-70.33h23.6l3.59-27.4h-27.19v-17.5c0-7.93 2.2-13.34 13.58-13.34h14.51V54.31a194.61 194.61 0 0 0-21.15-1.08c-20.92 0-35.25 12.77-35.25 36.23v20.21H86.84v27.41h23.66v70.32z" fill="#fff"/></g></svg>