<svg xmlns="http://www.w3.org/2000/svg" viewBox="0 0 253.75 253.75" width="32" height="32"><defs><style>.cls-2{fill:#fff}</style></defs><g id="Слой_2" data-name="Слой 2"><g id="Var2"><path d="M126.81 253.75h.12a126.81 126.81 0 0 0 126.82-126.81v-.06A126.87 126.87 0 0 0 126.88 0 126.87 126.87 0 0 0 0 126.87v.06a126.81 126.81 0 0 0 126.81 126.82z" fill="#333" id="Круги"/><g id="Иконки"><g id="instagram"><path class="cls-2" d="M126.87 73.54c17.37 0 19.43.07 26.29.38a36 36 0 0 1 12.08 2.24 21.55 21.55 0 0 1 12.35 12.34 36 36 0 0 1 2.24 12.08c.31 6.86.38 8.92.38 26.29s-.07 19.43-.38 26.29a36 36 0 0 1-2.24 12.08 21.55 21.55 0 0 1-12.35 12.35 36 36 0 0 1-12.08 2.24c-6.86.31-8.92.38-26.29.38s-19.43-.07-26.29-.38a36 36 0 0 1-12.08-2.24 21.55 21.55 0 0 1-12.35-12.35 36 36 0 0 1-2.24-12.08c-.31-6.86-.38-8.92-.38-26.29s.07-19.43.38-26.29a36 36 0 0 1 2.25-12.08A21.55 21.55 0 0 1 88.5 76.16a36 36 0 0 1 12.08-2.24c6.86-.31 8.92-.38 26.29-.38m0-11.72c-17.67 0-19.89.07-26.82.39a47.75 47.75 0 0 0-15.79 3 33.27 33.27 0 0 0-19 19 47.76 47.76 0 0 0-3 15.79c-.32 6.94-.39 9.15-.39 26.82s.07 19.89.39 26.82a47.76 47.76 0 0 0 3 15.79 33.27 33.27 0 0 0 19 19 47.76 47.76 0 0 0 15.79 3c6.94.32 9.15.39 26.82.39s19.89-.07 26.82-.39a47.76 47.76 0 0 0 15.79-3 33.27 33.27 0 0 0 19-19 47.75 47.75 0 0 0 3-15.79c.32-6.94.39-9.16.39-26.82s-.07-19.89-.39-26.82a47.75 47.75 0 0 0-3-15.79 33.27 33.27 0 0 0-19-19 47.75 47.75 0 0 0-15.79-3c-6.94-.32-9.15-.39-26.82-.39z"/><path class="cls-2" d="M126.87 93.47a33.41 33.41 0 1 0 33.41 33.41 33.41 33.41 0 0 0-33.41-33.41zm0 55.1a21.69 21.69 0 1 1 21.69-21.69 21.69 21.69 0 0 1-21.69 21.68z"/><circle class="cls-2" cx="161.6" cy="92.15" r="7.81"/></g></g></g></g></svg>