<svg xmlns="http://www.w3.org/2000/svg" viewBox="0 0 253.75 253.69" width="32" height="32"><defs><style>.cls-2{fill:#fff}</style></defs><g id="Слой_2" data-name="Слой 2"><g id="Var2"><path d="M126.81 253.69h.12a126.81 126.81 0 0 0 126.82-126.81A126.87 126.87 0 0 0 126.88 0 126.87 126.87 0 0 0 0 126.87a126.81 126.81 0 0 0 126.81 126.82z" fill="#333" id="Круги"/><g id="Иконки"><g id="ok"><path class="cls-2" d="M126.38 130.57a35.67 35.67 0 1 0-35.67-35.66 35.7 35.7 0 0 0 35.67 35.66zm0-50.43a14.77 14.77 0 1 1-14.77 14.77 14.78 14.78 0 0 1 14.77-14.77zM140.81 159.67a66.82 66.82 0 0 0 20.71-8.58 10.45 10.45 0 0 0-11.13-17.7 45.29 45.29 0 0 1-48 0 10.45 10.45 0 0 0-11.13 17.7 66.92 66.92 0 0 0 20.71 8.58L92 179.61a10.45 10.45 0 0 0 14.79 14.78l19.59-19.6 19.6 19.6a10.45 10.45 0 0 0 14.77-14.78z"/></g></g></g></g></svg>