<svg xmlns="http://www.w3.org/2000/svg" viewBox="0 0 253.75 253.75" width="32" height="32"><g data-name="Слой 2"><path d="M126.81 253.75h.12a126.81 126.81 0 0 0 126.82-126.81v-.06A126.87 126.87 0 0 0 126.88 0 126.87 126.87 0 0 0 0 126.87v.06a126.81 126.81 0 0 0 126.81 126.82z" fill="#333"/><path d="M122.15 176.83h9.62s2.91-.32 4.39-1.92 1.32-4.22 1.32-4.22-.19-12.9 5.8-14.81 13.49 12.47 21.52 18c6.08 4.17 10.69 3.26 10.69 3.26l21.49-.3s11.24-.69 5.91-9.53c-.44-.72-3.11-6.54-16-18.49-13.48-12.51-11.67-10.48 4.56-32.12 9.88-13.18 13.84-21.22 12.6-24.66-1.18-3.28-8.45-2.42-8.45-2.42l-24.2.15a5.5 5.5 0 0 0-3.12.55 6.76 6.76 0 0 0-2.13 2.6 140.39 140.39 0 0 1-8.94 18.87c-10.74 18.28-15.05 19.21-16.81 18.11-4.1-2.65-3.07-10.64-3.07-16.31 0-17.73 2.69-25.12-5.24-27-2.63-.63-4.57-1.05-11.29-1.12-8.63-.09-15.94 0-20.08 2.05-2.72 1.31-4.88 4.32-3.58 4.48 1.6.21 5.22 1 7.14 3.59 2.48 3.37 2.39 10.95 2.39 10.95s1.42 20.87-3.33 23.46c-3.26 1.78-7.74-1.85-17.34-18.45a154.35 154.35 0 0 1-8.64-17.9 7.19 7.19 0 0 0-2-2.7 10 10 0 0 0-3.72-1.5l-23 .15s-3.45.1-4.72 1.6c-1.13 1.34-.09 4.1-.09 4.1s18 42.11 38.38 63.34c18.69 19.46 39.91 18.18 39.91 18.18z" fill="#fff" fill-rule="evenodd"/></g></svg>